<?xml version="1.0" encoding="UTF-8" standalone="no"?>
<svg width="24px" height="24px" viewBox="0 0 24 24" version="1.1" xmlns="http://www.w3.org/2000/svg" xmlns:xlink="http://www.w3.org/1999/xlink">
    <!-- Generator: Sketch 3.8.2 (29753) - http://www.bohemiancoding.com/sketch -->
    <title>Shape</title>
    <desc>Created with Sketch.</desc>
    <defs></defs>
    <g id="Page-1" stroke="none" stroke-width="1" fill="none" fill-rule="evenodd">
        <g id="iPhone-6" transform="translate(-19.000000, -24.000000)" fill="#FFFFFF">
            <path d="M41,34 C40,34 40,34 40,33 L39,32 L39,31 L40,29 L40,28 L39,27 L38,27 L36,28 C36,28 36,28 35,28 L34,27 C33,27 33,27 33,26 L33,25 C33,24 32,24 32,24 C32,24 32,24 31,24 L30,24 C30,24 29,24 29,25 L29,26 C29,27 29,27 28,27 L27,28 L26,28 L24,27 L23,27 L22,28 L22,29 L23,31 C23,31 23,31 23,32 L22,33 C22,34 22,34 21,34 L20,34 C19,34 19,35 19,35 C19,35 19,35 19,36 L19,37 C19,37 19,38 20,38 L21,38 C22,38 22,38 22,39 L23,40 L23,41 L22,43 L22,44 L23,44 L23,45 L24,45 L26,44 L27,44 L28,45 C29,45 29,45 29,46 L29,47 C29,48 30,48 30,48 L31,48 L32,48 C32,48 33,48 33,47 L33,46 C33,45 33,45 34,45 L35,44 L36,44 L38,45 L39,45 L40,44 L40,43 L39,41 C39,41 39,41 39,40 L40,39 C40,38 40,38 41,38 L42,38 C43,38 43,37 43,37 C43,37 43,37 43,36 L43,35 C43,35 43,34 42,34 L41,34 L41,34 Z M31,39 C29,39 28,38 28,36 C28,34 29,33 31,33 C33,33 34,34 34,36 C34,38 33,39 31,39 L31,39 Z" id="Shape"></path>
        </g>
    </g>
</svg>